#!OML:ASF F:\twosubjects\two\Thursday\Session 1\justin.ASF
:FULLY-SPECIFIED
:DEGREES
401
root 9.21304 16.8695 -24.1619 -16.5377 -78.5197 21.1458
lowerback -3.55159 0.405666 -4.39741
upperback -0.751356 0.671629 1.68754
thorax 1.14713 0.318445 4.24131
lowerneck -20.6945 6.2564 -4.27477
upperneck 24.0605 9.47713 2.38376
head 10.844 4.16293 2.97025
rclavicle -3.46631e-015 0
rhumerus -37.9744 -10.4944 -84.1548
rradius 33.0462
rwrist -6.44606
rhand -15.3221 8.27317
rfingers 7.12502
rthumb 10.8541 -21.4263
lclavicle -3.46631e-015 0
lhumerus -34.0043 10.0671 86.7146
lradius 30.5965
lwrist -18.0044
lhand 3.18037 42.5536
lfingers 7.12502
lthumb 28.6329 70.3799
rfemur -15.7714 -1.15118 20.9041
rtibia 47.3659
rfoot -35.1378 -9.86434
rtoes 12.8596
lfemur -12.1747 3.49622 -22.9648
ltibia 37.4245
lfoot -23.4786 -5.05157
ltoes -3.62448
402
root 9.18817 16.8997 -24.1678 -14.5626 -78.261 19.5254
lowerback -3.99319 0.225138 -4.21829
upperback -0.997758 0.434292 1.75536
thorax 1.16641 0.202895 4.20278
lowerneck -20.4472 6.29525 -4.01301
upperneck 24.0038 9.52528 2.03498
head 10.8107 4.16502 2.79955
rclavicle -8.74653e-015 -1.74931e-014
rhumerus -38.269 -9.62024 -84.0683
rradius 33.4044
rwrist -6.42754
rhand -15.0091 8.60366
rfingers 7.12502
rthumb 11.156 -21.0798
lclavicle -8.74653e-015 -1.74931e-014
lhumerus -34.123 8.73208 86.3436
lradius 30.9889
lwrist -17.2975
lhand 2.16156 42.5049
lfingers 7.12502
lthumb 27.6591 70.4914
rfemur -15.5744 -1.50445 21.2199
rtibia 46.4623
rfoot -33.8169 -10.3968
rtoes 8.86682
lfemur -12.1986 3.15709 -22.7655
ltibia 36.8488
lfoot -22.3528 -4.46894
ltoes -2.83432
403
root 9.16266 16.9343 -24.1661 -12.4491 -78.1194 17.7579
lowerback -4.3922 0.127839 -3.58465
upperback -1.27838 0.287581 1.60021
thorax 1.12051 0.134736 3.67748
lowerneck -17.1827 6.04356 -1.5032
upperneck 21.3329 8.86364 -0.549498
head 9.53334 3.87783 1.20645
rclavicle 1.16165e-014 4.77083e-015
rhumerus -38.6232 -8.74849 -84.3484
rradius 33.7131
rwrist -6.61049
rhand -15.0336 8.91277
rfingers 7.12502
rthumb 11.1323 -20.7719
lclavicle 1.16165e-014 4.77083e-015
lhumerus -34.4036 7.17956 85.6236
lradius 31.8776
lwrist -15.9486
lhand 1.42213 42.5626
lfingers 7.12502
lthumb 26.9518 70.6604
rfemur -15.4159 -1.79397 21.5941
rtibia 45.6153
rfoot -32.7429 -11.0257
rtoes 4.38623
lfemur -12.2132 2.83566 -22.5088
ltibia 36.3702
lfoot -21.8645 -3.92743
ltoes -3.40382
404
root 9.14666 16.9714 -24.1662 -11.3712 -78.0124 17.0183
lowerback -4.6878 0.158756 -3.30278
upperback -1.53173 0.320034 1.53954
thorax 1.0242 0.155187 3.458
lowerneck -17.0182 5.96438 -1.29933
upperneck 21.3756 8.69024 -0.538143
head 9.52801 3.81534 1.15081
rclavicle -4.05179e-015 -1.66979e-014
rhumerus -38.9206 -8.05663 -84.1644
rradius 33.9592
rwrist -6.87189
rhand -15.1961 9.23836
rfingers 7.12502
rthumb 10.9756 -20.4547
lclavicle -4.05179e-015 -1.66979e-014
lhumerus -34.8103 5.76699 85.2261
lradius 32.9974
lwrist -14.9096
lhand 1.29387 42.443
lfingers 7.12502
lthumb 26.8291 70.5598
rfemur -15.3901 -1.74156 21.7477
rtibia 44.8495
rfoot -32.4062 -11.2403
rtoes 4.07862
lfemur -12.3508 2.68289 -22.4046
ltibia 35.9669
lfoot -21.8744 -4.02137
ltoes -3.31308
405
root 9.14661 16.9924 -24.1659 -11.0191 -77.7363 16.9439
lowerback -4.80684 0.131593 -3.41684
upperback -1.69339 0.28737 1.62791
thorax 0.925583 0.142442 3.6124
lowerneck -19.432 6.13904 -2.86475
upperneck 23.6908 9.05471 1.37374
head 10.6187 3.9857 2.26638
rclavicle -3.66043e-015 8.74653e-015
rhumerus -38.9536 -7.72972 -83.493
rradius 34.1536
rwrist -6.87537
rhand -15.2706 9.28618
rfingers 7.12502
rthumb 10.9038 -20.4107
lclavicle -3.66043e-015 8.74653e-015
lhumerus -34.967 5.06177 84.9325
lradius 33.8044
lwrist -14.7107
lhand 1.99423 42.3711
lfingers 7.12502
lthumb 27.4991 70.3831
rfemur -15.4248 -1.93356 21.7103
rtibia 44.2239
rfoot -32.3328 -11.2683
rtoes 4.21583
lfemur -12.4623 2.43549 -22.4973
ltibia 35.5206
lfoot -21.9998 -3.89145
ltoes -3.89295
406
root 9.14462 17.007 -24.1665 -11.2089 -77.4217 17.226
lowerback -4.64076 0.0860707 -3.48063
upperback -1.83732 0.22344 1.53893
thorax 0.69035 0.117197 3.55131
lowerneck -21.2404 6.26861 -3.89484
upperneck 25.3075 9.28567 2.85993
head 11.4137 4.11922 3.13154
rclavicle -4.05956e-015 1.11319e-014
rhumerus -39.0083 -7.39759 -83.1893
rradius 34.2601
rwrist -6.97388
rhand -15.4176 9.51831
rfingers 7.12502
rthumb 10.762 -20.186
lclavicle -4.05956e-015 1.11319e-014
lhumerus -34.8729 4.26769 84.2877
lradius 34.264
lwrist -14.4287
lhand 2.63218 41.796
lfingers 7.12502
lthumb 28.109 69.7095
rfemur -15.274 -2.1349 21.5751
rtibia 43.7383
rfoot -32.694 -11.1389
rtoes 5.45598
lfemur -12.3029 2.06019 -22.6807
ltibia 34.9979
lfoot -22.1403 -3.46229
ltoes -4.39133
